<svg xmlns="http://www.w3.org/2000/svg" width="24" height="24" viewBox="0 0 24 24"><defs><mask id="ko" maskUnits="userSpaceOnUse" x="0" y="0" width="24" height="24"><rect width="24" height="24" fill="#fff"/><g transform="translate(9,-0.5) scale(0.625)"><path d="m21.73 18l-8-14a2 2 0 0 0-3.48 0l-8 14A2 2 0 0 0 4 21h16a2 2 0 0 0 1.73-3M12 9v4m0 4h.01" fill="#000" stroke="#000" stroke-width="4"/></g></mask></defs><g fill="none" stroke="currentColor" stroke-linecap="round" stroke-linejoin="round" stroke-width="2" mask="url(#ko)"><path fill="none" stroke="currentColor" stroke-linecap="round" stroke-linejoin="round" stroke-width="2" d="M4 9h16M4 15h16M10 3L8 21m8-18l-2 18"/></g><g transform="translate(9,-0.5) scale(0.625)" fill="none" stroke="currentColor" stroke-linecap="round" stroke-linejoin="round" stroke-width="2"><path fill="none" stroke="currentColor" stroke-linecap="round" stroke-linejoin="round" stroke-width="2" d="m21.73 18l-8-14a2 2 0 0 0-3.48 0l-8 14A2 2 0 0 0 4 21h16a2 2 0 0 0 1.73-3M12 9v4m0 4h.01"/></g></svg>